PathFileType	4	(X/Y/Z)	F:\MotionCapture\20160217\3\Generated_files\EMG_Fprce_test04-Dynamic.trc
DataRate	CameraRate	NumFrames	NumMarkers	Units	OrigDataRate	OrigDataStartFrame	OrigNumFrames
120.00	120.00	       8	39	mm	120.00	425	       566
Frame#	Time	Top.Head			Front.Head			Rear.Head			R.Shoulder			R.Offset			R.Elbow			R.Wrist			L.Shoulder			L.Elbow			L.Wrist			R.ASIS			L.ASIS			V.Sacral			R.Thigh			R.Knee			R.Shank			R.Ankle			R.Heel			R.Toe			L.Thigh			L.Knee			L.Shank			L.Ankle			L.Heel			L.Toe			R1			R2			R3			R4			R5			R6			R7			L1			L2			L3			L4			L5			L6			L7			V_Mid_ASIS			V_Pelvis_Origin			V_R.Hip_JC			V_L.Hip_JC			V_R.Knee_JC			V_L.Knee_JC			V_R.Ankle_JC			V_L.Ankle_JC			V_Mid_Hip			V_Mid_Shoulder			V_R.Hand			V_L.Hand			V_R.Toe_Offset_Static			V_L.Toe_Offset_Static			V_R.Toe_Offset			V_L.Toe_Offset			
		X1	Y1	Z1	X2	Y2	Z2	X3	Y3	Z3	X4	Y4	Z4	X5	Y5	Z5	X6	Y6	Z6	X7	Y7	Z7	X8	Y8	Z8	X9	Y9	Z9	X10	Y10	Z10	X11	Y11	Z11	X12	Y12	Z12	X13	Y13	Z13	X14	Y14	Z14	X15	Y15	Z15	X16	Y16	Z16	X17	Y17	Z17	X18	Y18	Z18	X19	Y19	Z19	X20	Y20	Z20	X21	Y21	Z21	X22	Y22	Z22	X23	Y23	Z23	X24	Y24	Z24	X25	Y25	Z25	X26	Y26	Z26	X27	Y27	Z27	X28	Y28	Z28	X29	Y29	Z29	X30	Y30	Z30	X31	Y31	Z31	X32	Y32	Z32	X33	Y33	Z33	X34	Y34	Z34	X35	Y35	Z35	X36	Y36	Z36	X37	Y37	Z37	X38	Y38	Z38	X39	Y39	Z39	

425	3.533	-2115.44385	196.08920	1726.49268	-2235.87695	192.57185	1657.71143	-2014.21777	187.48943	1645.08923	-2075.47852	378.86908	1412.27344	-1977.52539	96.11285	1271.14392	-1997.87085	465.66751	1097.19910	-2047.66516	504.08597	841.57837	-2136.27344	-22.36393	1427.97583	-2209.99707	-134.42148	1116.34570	-2406.30176	-96.62370	953.03406	-2174.23291	313.87878	944.95044	-2186.12354	26.04622	936.95013	-1954.73389	165.94371	937.54144	-2336.25366	306.02002	631.12732	-2296.91382	346.13538	499.36261	-2277.86377	257.31808	267.40256	-2193.98657	303.51221	104.39416	-2135.23340	227.89996	90.64160	-2327.41675	295.60553	54.85492	-2188.81616	92.77633	605.77911	-2072.04321	43.38397	454.44522	-2058.24902	125.52296	318.84753	-1947.27075	70.28178	65.77178	-1881.97583	126.76371	53.12428	-2087.35620	77.18226	38.66973	-2372.06445	289.54791	61.06290	-2339.85522	262.40964	63.71849	-2257.44604	221.37593	93.69811	-2185.54736	208.17455	86.98596	-2156.80371	276.80392	81.62816	-2228.13696	313.60736	55.93496	-2289.28101	328.01663	45.28234	-2132.42407	101.90717	33.84870	-2099.74023	116.58710	42.16142	-2004.62146	160.78705	46.30724	-1920.99927	158.60498	49.38918	-1910.32446	87.82261	48.07019	-1981.85010	60.29453	33.62002	-2045.74683	45.18393	37.38581																																																	-2297.75464	295.38211	73.96777	-1965.21667	50.24258	83.21461	
426	3.542	-2127.75122	197.24797	1724.50916	-2248.09277	193.43306	1655.45642	-2026.63635	188.58847	1643.14429	-2087.35205	379.77600	1409.99292	-1987.95752	96.44601	1269.91272	-2004.39941	464.70770	1096.60718	-2047.97644	504.18588	839.92542	-2149.08643	-22.01164	1426.03430	-2227.67603	-133.66570	1116.08752	-2428.19727	-93.25205	958.79187	-2186.24048	314.21524	942.81769	-2196.63696	26.06560	934.57263	-1965.90674	167.26846	935.43530	-2348.83887	305.36465	629.63025	-2311.43530	345.24786	498.24985	-2304.02588	257.96628	265.50806	-2230.96729	305.07202	98.11588	-2170.97656	231.84164	80.43278	-2366.25610	296.42096	56.90782	-2195.24365	92.84641	603.70184	-2076.03149	43.93039	453.46420	-2060.66968	125.47399	318.00528	-1947.55225	70.68126	66.18349	-1882.01929	127.26542	53.72649	-2088.04932	76.50517	39.03910	-2410.41284	290.03683	65.78335	-2377.73608	263.05035	66.29642	-2293.80127	222.63184	91.47784	-2221.91992	210.69786	80.48499	-2194.98267	278.99240	72.86212	-2269.62231	315.63763	53.20055	-2329.66235	329.77939	45.24537	-2132.01099	101.88054	33.62989	-2099.33984	116.88329	41.93292	-2004.75073	160.90729	46.42685	-1921.53064	158.99620	49.88734	-1911.37146	88.63556	49.76425	-1981.83557	60.50045	33.63816	-2045.53674	45.41012	37.17175																																																	-1965.31335	50.37783	83.39779	
427	3.550	-2140.03149	198.07318	1722.15063	-2260.45288	194.72812	1653.31409	-2039.21362	188.98471	1640.97559	-2098.97461	380.39310	1407.83228	-2000.26636	96.98093	1267.65979	-2011.03333	464.65808	1095.94141	-2048.79199	504.19308	838.39819	-2160.95459	-20.69978	1423.77930	-2244.75146	-132.57858	1115.50891	-2450.02612	-90.34239	964.51605	-2198.16895	314.69171	940.19788	-2207.18945	26.70931	932.63873	-1977.16016	168.59129	933.25848	-2362.15112	305.14224	628.12292	-2325.77002	344.08850	496.88147	-2329.92603	258.61673	263.79803	-2263.65967	311.08765	95.27583	-2207.65308	236.31749	71.09426	-2404.27856	297.55109	59.80518	-2202.12231	92.79512	601.52063	-2080.77246	43.74409	452.59613	-2064.53809	125.64877	317.58289	-1947.23071	71.04052	66.55037	-1882.03992	128.04076	54.64928	-2086.82739	77.65856	37.95300	-2448.22656	290.03174	71.67149	-2414.90186	264.20209	69.72296	-2328.56592	225.72049	89.04443	-2257.76221	213.56841	74.33895	-2233.10938	282.66251	65.60282	-2308.74170	318.79492	50.84957	-2368.77393	331.81985	46.21699	-2132.20068	100.48248	32.80399	-2099.39331	116.81625	41.89496	-2004.92993	160.78490	46.62709	-1921.79004	159.33466	50.74932	-1910.39563	88.11402	49.73766	-1981.80688	60.77396	33.68377	-2045.34680	45.43870	37.00408																																																	-2220.73071	329.33066	-66.14175	-2219.79419	186.53125	14.31715	
428	3.558	-2152.47485	199.17163	1719.83752	-2272.83911	195.42862	1650.69470	-2051.97339	189.39102	1638.99817	-2110.69775	381.39590	1405.50427	-2012.30310	98.32479	1265.71924	-2017.37500	464.30371	1095.00452	-2050.09814	504.51938	837.10864	-2173.55957	-19.86762	1421.39294	-2262.13037	-131.24763	1114.66541	-2470.92627	-86.77430	969.80420	-2210.25537	315.15918	937.25775	-2218.12964	26.82345	930.62756	-1988.64502	170.24904	931.41333	-2374.96924	304.84280	625.84027	-2339.58887	342.60358	494.96021	-2355.15894	259.56866	262.14969	-2302.69312	312.49341	89.16463	-2243.29932	240.70064	63.14297	-2441.82056	299.56308	64.11024	-2209.36719	92.28293	599.19800	-2085.00244	43.84231	451.79346	-2067.25415	125.59445	316.58249	-1946.81067	71.22282	68.14311	-1882.42224	128.51811	55.73644	-2086.80835	77.52863	37.89351	-2484.41138	290.97528	77.64122	-2450.92700	265.57739	73.67584	-2363.43335	228.27197	87.55741	-2292.92529	217.68045	69.55568	-2269.80273	286.90167	59.94349	-2345.21655	321.82776	47.63677	-2406.93286	333.55222	48.51951	-2132.17896	101.23149	33.34899	-2099.38647	116.78793	41.83360	-2005.13220	160.83450	46.80103	-1922.08130	159.71487	51.95041	-1911.38696	88.95091	51.40511	-1981.63989	61.16858	33.77598	-2045.23340	45.46617	36.92667																																																	-2167.25488	300.55942	-45.64116	
429	3.567	-2164.74023	199.83116	1717.25635	-2285.26587	196.84261	1648.10132	-2064.13208	190.72026	1635.87476	-2122.74268	382.36118	1403.63770	-2023.89490	99.34483	1263.35583	-2024.01648	464.56168	1094.10974	-2051.51489	504.46365	835.61023	-2185.35986	-18.57097	1418.86279	-2278.99976	-129.85786	1113.86841	-2491.96558	-83.92387	975.10254	-2221.79492	315.52356	934.39752	-2228.90942	26.90706	928.04938	-2000.19983	171.23361	929.47980	-2387.35669	304.28528	622.78558	-2353.64551	340.50238	492.59961	-2380.08911	260.59738	261.19305	-2338.08325	316.04187	86.22440	-2278.80737	245.74127	56.59350	-2478.22388	301.70200	69.47617	-2216.40698	91.75563	597.01068	-2090.40991	43.29562	451.27118	-2071.45825	125.72083	315.98602	-1946.95471	71.49352	68.79321	-1882.40210	129.46461	57.60552	-2086.76636	77.40166	37.85859	-2519.47729	292.04764	84.12314	-2486.00977	267.66193	78.16432	-2396.82153	231.66711	86.64182	-2327.92163	221.14604	65.12711	-2305.35498	292.33081	55.30688	-2382.78442	326.23782	47.51672	-2444.66699	336.30267	51.89221	-2132.29614	99.91639	32.74281	-2099.32471	116.63823	41.71529	-2005.50757	160.90402	46.91802	-1922.29956	160.11444	52.81768	-1911.57727	89.60365	52.24147	-1981.47876	61.05134	33.93672	-2045.03064	45.06181	36.60454																																																	-2456.28882	275.27713	103.37557	
430	3.575	-2177.48218	201.28734	1714.55737	-2297.85034	197.66382	1645.27734	-2078.01831	192.18066	1634.00098	-2134.26367	383.59161	1400.98376	-2034.74304	100.32788	1260.80261	-2031.90747	464.20465	1093.29846	-2053.54370	504.58838	834.24799	-2197.87549	-17.48270	1416.06543	-2295.92749	-128.47154	1112.90942	-2511.89014	-80.32774	979.86761	-2234.20825	316.23041	931.43903	-2239.77246	27.77489	925.63611	-2012.63550	172.59341	927.22357	-2399.66724	303.62082	619.42218	-2367.72559	338.66110	490.24738	-2404.64551	261.33063	260.47501	-2369.02246	320.58160	85.37605	-2313.41113	250.62665	50.76376	-2512.40405	303.72659	74.21379	-2224.15161	90.99221	594.57037	-2095.11646	43.98600	450.00043	-2075.05884	125.66898	315.30493	-1947.30847	71.48539	69.58183	-1882.83630	129.19327	58.41908	-2086.74731	77.21037	37.87732	-2553.15283	293.34641	91.04305	-2519.97754	269.37549	83.03822	-2429.82227	234.79741	86.49890	-2361.49146	226.09760	61.11551	-2340.60278	295.97577	51.83186	-2418.40625	329.68674	48.20259	-2480.26343	339.10516	55.82624	-2132.22876	100.81671	33.26367	-2099.29053	116.57070	41.67048	-2005.71082	161.04787	47.22966	-1922.54871	160.67584	53.96041	-1911.40942	90.14105	53.45250	-1981.22668	60.91651	34.59201	-2044.82739	45.08469	36.39104																																																	-2345.72168	245.19135	34.80284	
431	3.583	-2189.84521	202.03987	1712.12891	-2310.43970	198.64369	1642.52100	-2088.77100	192.77303	1631.63672	-2146.68311	384.73492	1398.66431	-2047.12695	101.55551	1258.47388	-2039.11218	464.33789	1092.28638	-2057.81812	505.32617	832.62256	-2209.65430	-16.48905	1413.02905	-2312.24194	-126.71203	1111.68396	-2532.00854	-77.49995	984.55267	-2246.91797	317.19437	928.56232	-2250.78833	28.62623	923.48572	-2024.46216	173.96576	925.01886	-2411.14795	302.63910	615.46320	-2381.62183	336.92838	487.96359	-2428.24854	262.58661	260.21713	-2405.15137	323.56723	84.26962	-2346.43481	256.13736	45.98209	-2544.91309	306.37897	79.43147	-2232.06274	90.38425	592.24335	-2100.84766	43.38411	449.50616	-2078.58545	125.51538	314.26285	-1947.61646	71.78197	70.71823	-1883.13110	129.49554	59.91306	-2086.77148	77.09922	37.88942	-2584.93481	295.41724	97.83871	-2551.92505	272.00070	88.49531	-2461.85303	237.59460	87.22283	-2395.00366	230.45697	58.45042	-2374.47192	300.90884	49.40882	-2453.10645	333.44202	50.32345	-2514.15625	342.00891	59.95058	-2132.26025	100.61848	33.16602	-2099.00244	116.51147	41.17157	-2005.91235	161.10318	47.64546	-1922.44287	160.67143	54.69640	-1911.17383	90.26960	54.24210	-1981.54248	60.74226	34.87790	-2044.61243	45.08517	36.18019																																																	-1814.69080	95.18360	92.87995	
432	3.592	-2202.74585	203.29298	1709.42737	-2322.84961	199.83040	1639.66162	-2100.70410	194.25429	1628.73987	-2158.49487	385.82584	1396.13599	-2057.60156	102.94108	1256.30603	-2047.52820	464.57590	1091.14893	-2060.21973	505.16476	831.19354	-2222.06396	-15.11215	1410.03247	-2328.74390	-125.20980	1110.47766	-2551.10376	-74.01800	989.06415	-2260.44702	318.48700	925.53253	-2261.90234	29.20640	920.81848	-2035.64307	175.31393	922.99695	-2422.38086	301.59354	610.92419	-2395.03516	335.05771	485.90030	-2451.23096	263.61670	260.52777	-2437.88257	329.50476	85.14226	-2379.33862	260.36270	42.50108	-2576.25732	308.58688	85.54037	-2240.23267	89.62664	589.89136	-2106.32202	43.74056	448.29605	-2082.87988	125.24278	313.31158	-1949.39978	73.05865	69.46936	-1883.36072	130.36292	62.58694	-2086.72314	76.99107	37.85490	-2615.29810	297.21225	105.36045	-2582.62451	274.32666	93.67314	-2492.54346	240.46442	88.50462	-2426.35181	234.96152	56.14991	-2407.41748	305.74173	48.76212	-2486.11597	336.75998	52.72457	-2546.46558	345.12805	65.77830	-2132.29077	100.35682	33.01796	-2099.16919	116.06274	41.33777	-2006.38489	161.07704	48.33003	-1923.16797	160.78647	56.72437	-1911.32263	90.10385	56.11439	-1981.71191	60.59803	35.33711	-2044.49158	45.01284	36.02729																																																	-2406.43896	335.34030	93.49111	-2554.27490	293.90021	110.48990	
